<?xml version="1.0" encoding="UTF-8" standalone="no"?>
<!DOCTYPE svg PUBLIC "-//W3C//DTD SVG 1.1//EN" "http://www.w3.org/Graphics/SVG/1.1/DTD/svg11.dtd">
<svg width="100%" height="100%" viewBox="0 0 670 155" version="1.1" xmlns="http://www.w3.org/2000/svg" xmlns:xlink="http://www.w3.org/1999/xlink" xml:space="preserve" xmlns:serif="http://www.serif.com/" style="fill-rule:evenodd;clip-rule:evenodd;stroke-linecap:round;stroke-linejoin:round;stroke-miterlimit:1.5;">
    <g transform="matrix(1,0,0,1,-3018.9,-728.859)">
        <g transform="matrix(1,0,0,1,2948,278)">
            <g transform="matrix(1,0,0,1,-69,30)">
                <g transform="matrix(1,0,0,1,-764.875,73.0024)">
                    <g transform="matrix(85.8431,0,0,85.8431,1434.2,409.101)">
                    </g>
                    <text x="1086.02px" y="409.101px" style="font-family:'Poppins-Light', 'Poppins Light';font-weight:300;font-size:85.843px;fill:rgb(51,51,51);">SAAMAN</text>
                </g>
                <g transform="matrix(1,0,0,1,-766.935,160.2)">
                    <g transform="matrix(85.8431,0,0,85.8431,1578.07,409.101)">
                    </g>
                    <text x="1086.02px" y="409.101px" style="font-family:'Poppins-Light', 'Poppins Light';font-weight:300;font-size:85.843px;fill:rgb(51,51,51);">DIAGNOSTIK</text>
                </g>
                <g id="Logo" transform="matrix(1,0,0,1,-9,234)">
                    <g transform="matrix(0.477038,0,0,0.477038,-75.6276,51.2139)">
                        <path d="M569.625,428.753L533.232,428.753L533.232,601.752L569.625,601.752L569.625,428.753ZM651.353,471.008L614.961,471.008L614.543,601.752L650.935,601.752L651.353,471.008ZM732.182,348.261L695.789,348.261L695.789,601.752L732.182,601.752L732.182,348.261Z" style="fill:none;stroke:rgb(51,51,51);stroke-width:6.8px;"/>
                    </g>
                    <path d="M196.105,255.745L178.744,255.745L178.744,338.272L196.105,338.272L196.105,255.745ZM235.093,275.902L217.732,275.902L217.533,338.272L234.893,338.272L235.093,275.902ZM273.651,217.348L256.29,217.348L256.29,338.272L273.651,338.272L273.651,217.348Z" style="fill:none;stroke:rgb(51,51,51);stroke-width:3.24px;"/>
                    <path d="M196.105,255.745L178.744,255.745L178.744,338.272L196.105,338.272L196.105,255.745ZM235.093,275.902L217.732,275.902L217.533,338.272L234.893,338.272L235.093,275.902ZM273.651,217.348L256.29,217.348L256.29,338.272L273.651,338.272L273.651,217.348Z" style="fill:none;stroke:rgb(51,51,51);stroke-width:3.24px;"/>
                    <g transform="matrix(1,0,0,1,-0.115099,0)">
                        <path d="M235.093,275.902L217.732,275.902L217.533,338.272L234.893,338.272L235.093,275.902Z" style="fill:none;stroke:rgb(51,51,51);stroke-width:3.24px;stroke-linejoin:miter;"/>
                    </g>
                    <path d="M178.744,338.272L151.82,338.272L151.82,189.782L300.309,189.782L300.309,338.272L273.651,338.272" style="fill:none;stroke:rgb(51,51,51);stroke-width:3.24px;stroke-linecap:square;stroke-linejoin:miter;"/>
                    <rect x="256.29" y="217.348" width="17.36" height="120.924" style="fill:none;stroke:rgb(51,51,51);stroke-width:3.24px;stroke-linejoin:miter;"/>
                    <path d="M182.472,338.272L178.744,338.272L178.744,255.745L196.105,255.745L196.105,338.272L194.298,338.272" style="fill:none;stroke:rgb(51,51,51);stroke-width:3.24px;stroke-linejoin:miter;"/>
                </g>
            </g>
        </g>
    </g>
</svg>
